<mxfile host="Electron" agent="Mozilla/5.0 (Macintosh; Intel Mac OS X 10_15_7) AppleWebKit/537.36 (KHTML, like Gecko) draw.io/28.1.2 Chrome/138.0.7204.243 Electron/37.4.0 Safari/537.36" version="28.1.2">
  <diagram name="Page-1" id="FSkJESLR4-jSo4Jha7fG">
    <mxGraphModel dx="1018" dy="777" grid="1" gridSize="10" guides="1" tooltips="1" connect="1" arrows="1" fold="1" page="1" pageScale="1" pageWidth="850" pageHeight="1100" math="0" shadow="0">
      <root>
        <mxCell id="0" />
        <mxCell id="1" parent="0" />
        <mxCell id="C5VFGnx-1CJe2Px4a7f3-3" value="" style="edgeStyle=orthogonalEdgeStyle;rounded=0;orthogonalLoop=1;jettySize=auto;html=1;" edge="1" parent="1" source="C5VFGnx-1CJe2Px4a7f3-1" target="C5VFGnx-1CJe2Px4a7f3-2">
          <mxGeometry relative="1" as="geometry" />
        </mxCell>
        <mxCell id="C5VFGnx-1CJe2Px4a7f3-1" value="Market Data Collection" style="rounded=1;whiteSpace=wrap;html=1;absoluteArcSize=1;arcSize=14;strokeWidth=2;fillColor=#ffe6cc;strokeColor=#d79b00;fontStyle=1" vertex="1" parent="1">
          <mxGeometry x="210" y="190" width="100" height="100" as="geometry" />
        </mxCell>
        <mxCell id="C5VFGnx-1CJe2Px4a7f3-5" value="" style="edgeStyle=orthogonalEdgeStyle;rounded=0;orthogonalLoop=1;jettySize=auto;html=1;" edge="1" parent="1" source="C5VFGnx-1CJe2Px4a7f3-2" target="C5VFGnx-1CJe2Px4a7f3-4">
          <mxGeometry relative="1" as="geometry" />
        </mxCell>
        <mxCell id="C5VFGnx-1CJe2Px4a7f3-2" value="Feature Engineering" style="rounded=1;whiteSpace=wrap;html=1;absoluteArcSize=1;arcSize=14;strokeWidth=2;fillColor=#ffe6cc;strokeColor=#d79b00;fontStyle=1" vertex="1" parent="1">
          <mxGeometry x="390" y="190" width="100" height="100" as="geometry" />
        </mxCell>
        <mxCell id="C5VFGnx-1CJe2Px4a7f3-7" value="" style="edgeStyle=orthogonalEdgeStyle;rounded=0;orthogonalLoop=1;jettySize=auto;html=1;" edge="1" parent="1" source="C5VFGnx-1CJe2Px4a7f3-4">
          <mxGeometry relative="1" as="geometry">
            <mxPoint x="420" y="410" as="targetPoint" />
            <Array as="points">
              <mxPoint x="610" y="380" />
              <mxPoint x="420" y="380" />
            </Array>
          </mxGeometry>
        </mxCell>
        <mxCell id="C5VFGnx-1CJe2Px4a7f3-4" value="Portfolio Environment" style="rounded=1;whiteSpace=wrap;html=1;absoluteArcSize=1;arcSize=14;strokeWidth=2;fillColor=#ffe6cc;strokeColor=#d79b00;fontStyle=1" vertex="1" parent="1">
          <mxGeometry x="570" y="190" width="100" height="100" as="geometry" />
        </mxCell>
        <mxCell id="C5VFGnx-1CJe2Px4a7f3-16" style="edgeStyle=orthogonalEdgeStyle;rounded=0;orthogonalLoop=1;jettySize=auto;html=1;" edge="1" parent="1" source="C5VFGnx-1CJe2Px4a7f3-8" target="C5VFGnx-1CJe2Px4a7f3-10">
          <mxGeometry relative="1" as="geometry">
            <Array as="points">
              <mxPoint x="540" y="570" />
            </Array>
          </mxGeometry>
        </mxCell>
        <mxCell id="C5VFGnx-1CJe2Px4a7f3-8" value="Training Loop" style="rounded=1;whiteSpace=wrap;html=1;absoluteArcSize=1;arcSize=14;strokeWidth=2;fillColor=#dae8fc;strokeColor=#6c8ebf;fontStyle=1" vertex="1" parent="1">
          <mxGeometry x="510" y="430" width="100" height="100" as="geometry" />
        </mxCell>
        <mxCell id="C5VFGnx-1CJe2Px4a7f3-19" style="edgeStyle=orthogonalEdgeStyle;rounded=0;orthogonalLoop=1;jettySize=auto;html=1;exitX=0.5;exitY=1;exitDx=0;exitDy=0;entryX=0.5;entryY=0;entryDx=0;entryDy=0;" edge="1" parent="1" source="C5VFGnx-1CJe2Px4a7f3-10" target="C5VFGnx-1CJe2Px4a7f3-12">
          <mxGeometry relative="1" as="geometry" />
        </mxCell>
        <mxCell id="C5VFGnx-1CJe2Px4a7f3-10" value="Experience Replay Buffer" style="rounded=1;whiteSpace=wrap;html=1;absoluteArcSize=1;arcSize=14;strokeWidth=2;fillColor=#f5f5f5;fontColor=#333333;strokeColor=#666666;fontStyle=1" vertex="1" parent="1">
          <mxGeometry x="325" y="520" width="100" height="100" as="geometry" />
        </mxCell>
        <mxCell id="C5VFGnx-1CJe2Px4a7f3-15" value="" style="edgeStyle=orthogonalEdgeStyle;rounded=0;orthogonalLoop=1;jettySize=auto;html=1;" edge="1" parent="1" source="C5VFGnx-1CJe2Px4a7f3-12" target="C5VFGnx-1CJe2Px4a7f3-14">
          <mxGeometry relative="1" as="geometry" />
        </mxCell>
        <mxCell id="C5VFGnx-1CJe2Px4a7f3-12" value="Model Update" style="rounded=1;whiteSpace=wrap;html=1;absoluteArcSize=1;arcSize=14;strokeWidth=2;fillColor=#fff2cc;strokeColor=#d6b656;fontStyle=1" vertex="1" parent="1">
          <mxGeometry x="325" y="680" width="100" height="100" as="geometry" />
        </mxCell>
        <mxCell id="C5VFGnx-1CJe2Px4a7f3-14" value="Model Evaluation" style="rhombus;whiteSpace=wrap;html=1;rounded=1;absoluteArcSize=1;arcSize=14;strokeWidth=2;fillColor=#bac8d3;strokeColor=#23445d;fontStyle=1" vertex="1" parent="1">
          <mxGeometry x="510" y="690" width="130" height="80" as="geometry" />
        </mxCell>
        <mxCell id="C5VFGnx-1CJe2Px4a7f3-18" style="edgeStyle=orthogonalEdgeStyle;rounded=0;orthogonalLoop=1;jettySize=auto;html=1;entryX=0;entryY=0.5;entryDx=0;entryDy=0;" edge="1" parent="1" source="C5VFGnx-1CJe2Px4a7f3-17" target="C5VFGnx-1CJe2Px4a7f3-8">
          <mxGeometry relative="1" as="geometry">
            <Array as="points">
              <mxPoint x="430" y="480" />
            </Array>
          </mxGeometry>
        </mxCell>
        <mxCell id="C5VFGnx-1CJe2Px4a7f3-17" value="&lt;span style=&quot;color: rgb(0, 0, 0); font-family: Helvetica; font-size: 12px; font-style: normal; font-variant-ligatures: normal; font-variant-caps: normal; letter-spacing: normal; orphans: 2; text-align: center; text-indent: 0px; text-transform: none; widows: 2; word-spacing: 0px; -webkit-text-stroke-width: 0px; white-space: normal; background-color: rgb(236, 236, 236); text-decoration-thickness: initial; text-decoration-style: initial; text-decoration-color: initial; float: none; display: inline !important;&quot;&gt;MHA-DQN Initialization&lt;/span&gt;" style="strokeWidth=2;html=1;shape=mxgraph.flowchart.decision;whiteSpace=wrap;fillColor=#e1d5e7;strokeColor=#9673a6;fontStyle=1" vertex="1" parent="1">
          <mxGeometry x="380" y="330" width="100" height="100" as="geometry" />
        </mxCell>
        <mxCell id="C5VFGnx-1CJe2Px4a7f3-20" value="&lt;b&gt;&lt;font style=&quot;font-size: 14px;&quot;&gt;MHA-DQN Training Process Flow&amp;nbsp;&lt;/font&gt;&lt;/b&gt;" style="text;html=1;align=center;verticalAlign=middle;whiteSpace=wrap;rounded=0;" vertex="1" parent="1">
          <mxGeometry x="310" y="110" width="260" height="30" as="geometry" />
        </mxCell>
        <mxCell id="C5VFGnx-1CJe2Px4a7f3-22" value="&lt;font style=&quot;font-size: 9px;&quot;&gt;&lt;b&gt;Training Details:&lt;/b&gt;&lt;/font&gt;&lt;div&gt;&lt;font style=&quot;font-size: 9px;&quot;&gt;- 100 episodes X 252 steps&lt;/font&gt;&lt;/div&gt;&lt;div&gt;&lt;font style=&quot;font-size: 9px;&quot;&gt;- Prioritized experience replay&lt;/font&gt;&lt;/div&gt;&lt;div&gt;&lt;font style=&quot;font-size: 9px;&quot;&gt;- Target network updates&lt;/font&gt;&lt;/div&gt;&lt;div&gt;&lt;font style=&quot;font-size: 9px;&quot;&gt;- E-greedy exploration&lt;/font&gt;&lt;/div&gt;&lt;div&gt;&lt;br&gt;&lt;/div&gt;" style="rounded=0;whiteSpace=wrap;html=1;fillColor=#fff2cc;strokeColor=#d6b656;gradientColor=#ffd966;" vertex="1" parent="1">
          <mxGeometry x="83" y="761" width="170" height="90" as="geometry" />
        </mxCell>
      </root>
    </mxGraphModel>
  </diagram>
</mxfile>
